# xmcd
#
# Track frame offsets:
#  150
#  18359
#  39425
#  54310
#  65897
#  86128
#
# Disc length: 1412 seconds
#
# Revision: 0
# Processed by: cddbd v1.5.1PL2 Copyright (c) Steve Scherf et al.
# Submitted via: Collectorz.com_Music_Collector 6.9
#
DISCID=4a058206
DTITLE=Serrisa - Serrisa's Golden Hits
DYEAR=1996
DGENRE=Country
TTITLE0=Whose Bed Have Your Boots Been Under?
TTITLE1=The Greatest Love
TTITLE2=I'm Not Over You
TTITLE3=How Blue
TTITLE4=Take It To The Limit
TTITLE5=The Rose
EXTD=
EXTT0=
EXTT1=
EXTT2=
EXTT3=
EXTT4=
EXTT5=
PLAYORDER=
